<svg id="Group_168" data-name="Group 168" xmlns="http://www.w3.org/2000/svg" width="26.502" height="26.507" viewBox="0 0 26.502 26.507">
  <g id="Group_167" data-name="Group 167">
    <path id="Path_223" data-name="Path 223" d="M27.333,7.793a9.687,9.687,0,0,0-.616-3.216A6.79,6.79,0,0,0,22.838.7,9.712,9.712,0,0,0,19.623.083C18.2.016,17.753,0,14.154,0S10.1.016,8.691.078A9.688,9.688,0,0,0,5.476.694,6.467,6.467,0,0,0,3.125,2.227,6.526,6.526,0,0,0,1.6,4.572,9.711,9.711,0,0,0,.981,7.788C.914,9.207.9,9.657.9,13.256s.016,4.049.078,5.463a9.686,9.686,0,0,0,.616,3.216A6.79,6.79,0,0,0,5.47,25.813a9.713,9.713,0,0,0,3.216.616c1.413.062,1.864.078,5.463.078s4.049-.015,5.463-.078a9.684,9.684,0,0,0,3.216-.616,6.78,6.78,0,0,0,3.879-3.878,9.718,9.718,0,0,0,.616-3.216c.062-1.414.078-1.864.078-5.463S27.395,9.207,27.333,7.793ZM24.946,18.616a7.264,7.264,0,0,1-.456,2.46,4.4,4.4,0,0,1-2.517,2.517,7.293,7.293,0,0,1-2.46.456c-1.4.062-1.817.078-5.354.078s-3.961-.015-5.354-.078a7.263,7.263,0,0,1-2.46-.456A4.08,4.08,0,0,1,4.823,22.6a4.122,4.122,0,0,1-.989-1.522,7.291,7.291,0,0,1-.456-2.46c-.062-1.4-.078-1.818-.078-5.354s.015-3.961.078-5.354a7.26,7.26,0,0,1,.456-2.46A4.029,4.029,0,0,1,4.828,3.93a4.114,4.114,0,0,1,1.522-.989,7.3,7.3,0,0,1,2.46-.456c1.4-.062,1.818-.078,5.354-.078s3.961.016,5.354.078a7.264,7.264,0,0,1,2.46.456A4.075,4.075,0,0,1,23.5,3.93a4.12,4.12,0,0,1,.989,1.523,7.294,7.294,0,0,1,.456,2.46c.062,1.4.078,1.817.078,5.354S25.008,17.218,24.946,18.616Z" transform="translate(-0.898 0)" fill="#fff"/>
    <path id="Path_224" data-name="Path 224" d="M131.988,124.281a6.809,6.809,0,1,0,6.809,6.809A6.811,6.811,0,0,0,131.988,124.281Zm0,11.226a4.417,4.417,0,1,1,4.417-4.417A4.418,4.418,0,0,1,131.988,135.507Z" transform="translate(-118.732 -117.834)" fill="#fff"/>
    <path id="Path_225" data-name="Path 225" d="M365.441,90.036a1.59,1.59,0,1,1-1.59-1.59A1.59,1.59,0,0,1,365.441,90.036Z" transform="translate(-343.516 -83.858)" fill="#fff"/>
  </g>
</svg>
