<svg xmlns="http://www.w3.org/2000/svg" width="49.206" height="82.971" viewBox="0 0 49.206 82.971">
  <g id="Group_166" data-name="Group 166" transform="translate(0 0)">
    <path id="Path_203" data-name="Path 203" d="M914.445,644.9a.763.763,0,0,0,.081-.32A.748.748,0,0,1,914.8,644c.045-.123.1-.245.148-.366a4.759,4.759,0,0,0,.269-.774l.14-.595c.067-.276.134-.553.189-.83.078-.383.141-.769.2-1.154l.063-.4a4.056,4.056,0,0,0,.083-.856,1.054,1.054,0,0,1,.1-.557l.027-.237c.012-.13.027-.259.049-.387l.105-.581.071-.486a1.292,1.292,0,0,0-.484-.707l-.011.027c-.069.181-.136.357-.192.538a2.852,2.852,0,0,1-.752,1.206c-.207.2-.409.408-.7.7l-.514.536a6.346,6.346,0,0,0-.511.562,6.047,6.047,0,0,0-.807,1.463,11.95,11.95,0,0,0-.61,1.938l-.165.782c-.182.851-.364,1.7-.514,2.562-.1.58-.239,1.154-.376,1.729l-.129.543a.816.816,0,0,1-.269.483l-.079.06-.321-.075a5.961,5.961,0,0,1-.323,1.126.806.806,0,0,0-.019.81,1.342,1.342,0,0,0,.594.7,3.611,3.611,0,0,0,.955.424,3.919,3.919,0,0,1,.855.368l.212.027v.256c.179.239.364.475.573.721l.182-.626a1.032,1.032,0,0,0,.026-.137l.148-1.005a4.013,4.013,0,0,0,.085-.8l.011-.164a5.271,5.271,0,0,0,.1-1l.007-.167.038-.238a2.631,2.631,0,0,0,.055-.458,2.324,2.324,0,0,1,.081-.518,1.479,1.479,0,0,0,.06-.542.575.575,0,0,1,.048-.208l.056-.257c.022-.107.037-.215.053-.323a2.5,2.5,0,0,1,.148-.509l.081-.222A7.154,7.154,0,0,1,914.445,644.9Zm.656-6.944c.093.125.108.205.042.248a.1.1,0,0,1-.079,0C914.993,638.165,915.006,638.1,915.1,637.96Zm-.447,3.061c.008,0,.018,0,.029.012l.033.027-.03.037-.036.041-.071-.062C914.6,641.058,914.625,641.029,914.654,641.021Zm-.375.331a.475.475,0,0,1,.01.613C914.054,641.713,914.048,641.594,914.279,641.352Zm-2.752,3.842c.04-.053.053-.092.081-.107a.152.152,0,0,1,.2.008.1.1,0,0,1,.007.075.928.928,0,0,1-.171.055C911.623,645.229,911.594,645.213,911.527,645.193Zm.294,4.516c-.051-.022-.083-.082-.105-.1,0-.119.014-.2.107-.207s.111.059.118.129C911.952,649.633,911.886,649.736,911.822,649.71Z" transform="translate(-902.817 -573.159)" fill="#fff"/>
    <path id="Path_204" data-name="Path 204" d="M913.126,605.988c.12.284.239.569.366.849.306.674.578,1.353.807,2.019a2.1,2.1,0,0,0,.738,1.007,3.167,3.167,0,0,1,.881,1.142c.123.244.249.488.38.729l-.03-.2a7.592,7.592,0,0,0-.186-.993,2.731,2.731,0,0,1-.071-.453l-.029-.287c-.011-.146-.025-.291-.048-.436-.023-.16-.055-.319-.085-.476a5.652,5.652,0,0,1-.14-1.142,4.594,4.594,0,0,0-.494-1.6.853.853,0,0,1-.118-.384c-.012-.253-.029-.5-.049-.755s-.12-1.178-.12-1.178a1.815,1.815,0,0,0-.278-.756q-.033-.057-.07-.115s-.412.5-.635.763c-.353.414-.706.83-1.071,1.234a.247.247,0,0,0-.058.317Z" transform="translate(-901.563 -585.333)" fill="#fff"/>
    <path id="Path_205" data-name="Path 205" d="M914.265,594.851a2,2,0,0,0,.271-.015c.161-.023.323-.038.486-.053.2-.018.391-.036.587-.068l-.425-.041c-.155-.014-.309-.027-.461-.053a4.289,4.289,0,0,0-.747-.053l-.55.008a1.677,1.677,0,0,0,.4.267Z" transform="translate(-901.328 -588.419)" fill="#fff"/>
    <path id="Path_206" data-name="Path 206" d="M914.362,594.156a1.362,1.362,0,0,0,.082-.3c.033-.275.045-.551.053-.828.011-.3.017-.592.007-.889-.119.237-.235.475-.335.719a6.964,6.964,0,0,0-.312.929,1.081,1.081,0,0,0-.026.758Z" transform="translate(-901.201 -589.312)" fill="#fff"/>
    <path id="Path_207" data-name="Path 207" d="M905.561,615.987a10.8,10.8,0,0,0,.376-1.176l.092-.32a7.32,7.32,0,0,0-.6,1.952l.021-.079A2.483,2.483,0,0,1,905.561,615.987Z" transform="translate(-904.269 -581.094)" fill="#fff"/>
    <path id="Path_208" data-name="Path 208" d="M906.513,615.066l.128.019.038.015a.424.424,0,0,1,.224.454,2.525,2.525,0,0,1-.014.41,7.734,7.734,0,0,1,.578-.632l.3-.3.164-.127h.083a.469.469,0,0,1,.294.148l.108.09s-.4,1.149-.4,1.164c.161-.253.329-.507.5-.77a1.412,1.412,0,0,1,.189-.241l.265-.249c.111-.1.223-.2.328-.31a5.315,5.315,0,0,1,1.7-1.156c.191-.085.387-.156.585-.227l.622-.222.127-.027.273-.015.43-.038c-.088-.019-.175-.041-.26-.063a3.77,3.77,0,0,0-.465-.1l-.2-.023.021-.2c.023-.237.127-.36.384-.36.01,0,.683-.09.683-.09l.368-.1.6-.053s-.621-.186-.8-.245a.781.781,0,0,1-.242-.172l-.28-.222.388-.153h-.238a8.184,8.184,0,0,0-.9.038l-.252.027c-.231.026-.462.05-.692.092a6.591,6.591,0,0,0-2.707,1.162c-.138.1-.268.207-.4.316l-.271.222c-.088.07-.175.14-.255.215a7.714,7.714,0,0,0-1.422,1.794c-.036.062-.068.123-.1.185a.724.724,0,0,1,.215-.164A.663.663,0,0,1,906.513,615.066Z" transform="translate(-904.06 -582.277)" fill="#fff"/>
    <path id="Path_209" data-name="Path 209" d="M912.151,634.85c.122.13.246.256.373.379l.326.33c.613.641,1.287,1.245,2.039,1.917.387.347.778.689,1.17,1.031l.552.473c.146.127.291.256.432.39a3.338,3.338,0,0,1,.231.261,5.557,5.557,0,0,1,1.517,2.78,5.9,5.9,0,0,1,.123.684,10.438,10.438,0,0,1,.058,1.09c0,.362-.019.725-.034,1.085l-.038.58-.093.97a.577.577,0,0,1-.025.23.554.554,0,0,0-.014.267,1.427,1.427,0,0,1,.2.083.355.355,0,0,1,.164.264l-.053.231-.156.056a1.777,1.777,0,0,0-.189.07l-.066.2a7.946,7.946,0,0,1-.734,1.741,3.888,3.888,0,0,0-.457,1.2,1.766,1.766,0,0,0,0,.833c.034.128.074.254.119.379l-.012-.1a2.464,2.464,0,0,1-.032-.6,2.243,2.243,0,0,1,.5-1.149l.074-.063.165-.045.083.067a.547.547,0,0,1,.2.555,1.7,1.7,0,0,0,.033.678c.053.328.135.652.217.975l.1.419c.005.021.014.052.105.079l.075-.09.048-.149a4.457,4.457,0,0,0,.105-.45,4.463,4.463,0,0,1,.2-.8,4.38,4.38,0,0,0,.138-.55c.026-.118.044-.237.082-.49l.163-1.012a1.811,1.811,0,0,1,.063-.294c.055-.174.194-.29.492-.331l.154-.023.06.033a.385.385,0,0,1,.186.429l-.057.688a4.264,4.264,0,0,1-.06.517,1.649,1.649,0,0,1-.133.376l-.127.227a.676.676,0,0,0-.26.517c.067-.051.354-.247.354-.247a2.473,2.473,0,0,0,.39-.425,4.374,4.374,0,0,0,.751-1.169.323.323,0,0,0,.019-.257l-.146-.339-.253-.527a.567.567,0,0,1-.144-.691.384.384,0,0,0,.027-.14l-.008-.258a3.77,3.77,0,0,1,0-.465,2.008,2.008,0,0,1,.148-.609,3.288,3.288,0,0,1,1.057-1.266,2.8,2.8,0,0,1,.5-.286l.8-.419a2.9,2.9,0,0,1,.315-.317,1.929,1.929,0,0,0,.363-.4c.2-.326.205-.4.038-.663a4.943,4.943,0,0,0-1.47-1.51,2.6,2.6,0,0,1-.526-.429,5.227,5.227,0,0,1-.815-1.329l-1.022-2.324c-.109-.256-.219-.51-.339-.759a4.981,4.981,0,0,1-.528-1.782l-.63-1.47c-.105-.257-.211-.512-.331-.76a4.073,4.073,0,0,1-.367-1.16,2.207,2.207,0,0,0-.234-.741l-.07-.127a2.36,2.36,0,0,1-.284-.656l-.135-.161c-.159-.19-.319-.38-.485-.563a10.058,10.058,0,0,0-1.049-.956,3.458,3.458,0,0,0-1.677-.706,1.316,1.316,0,0,1-.205.015,3.22,3.22,0,0,1-.382-.03,2.755,2.755,0,0,0-.334-.029,1.621,1.621,0,0,0-.324.041l-.588-.079c-.133-.015-.268-.03-.4-.053a.841.841,0,0,1-.673-.4l-.182-.13.145-.17a.674.674,0,0,1,.573-.293h.025l.17-.045.25,0a2.556,2.556,0,0,0,.7.07c.228.007.455.027.681.046l.172.014a.5.5,0,0,1,.157.041c.126.021.25.042.376.055a3.039,3.039,0,0,0,.316.014h.229a3.348,3.348,0,0,1,.855.093l.2.005a3.594,3.594,0,0,1,.5.036c.313.053.626.122.938.19l.581.122a6.012,6.012,0,0,1,1.136.306c.086.037.172.077.257.118.1.048.2.1.3.134a11.333,11.333,0,0,1,1.829.929c.667.4,1.3.747,1.917,1.059a.433.433,0,0,1-.051-.219.425.425,0,0,1,.25-.362,1.868,1.868,0,0,1,.259-.092l.135-.041.157.027-.217-.371a2.244,2.244,0,0,1-.131-.22,2.524,2.524,0,0,0-.4-.551,1.973,1.973,0,0,1-.25-.358,2.116,2.116,0,0,1-.111-.231,2,2,0,0,0-.12-.242l-1.365-2.16a1.14,1.14,0,0,0-.414-.391,3.7,3.7,0,0,0-1.827-.5,3.793,3.793,0,0,0-.767.082c-.347.072-.692.152-1.038.232l-.844.19a8.894,8.894,0,0,1-.931.174,9.118,9.118,0,0,1-1.1.059h-.968a8.4,8.4,0,0,1-1.472-.1,15.667,15.667,0,0,1-1.618-.375,10.76,10.76,0,0,1-3.571-1.911,12.075,12.075,0,0,1-1.476-1.3c-.115-.118-.237-.231-.367-.342a4.959,4.959,0,0,1-.765-.776c-.012-.018-.025-.033-.036-.046a.236.236,0,0,0,0,.06l.075.364c.057.282.115.565.185.842.108.431.695,2.66.695,2.66a23.7,23.7,0,0,0,1.016,3.295,8.874,8.874,0,0,0,1.221,2.262c.229.28.443.573.657.866.154.213.31.425.473.636l.127.165c.372.477.744.959,1.143,1.414.5.573,1.024,1.131,1.545,1.688Zm8.694,13.057a.183.183,0,0,1-.045.261C920.684,648.011,920.684,648.011,920.846,647.907Zm-.278-5.372c-.126-.019-.152-.086-.119-.228C920.578,642.361,920.615,642.423,920.568,642.535Zm-.237,2.071c.149.1.079.239.083.406C920.225,644.86,920.221,644.826,920.331,644.606Zm-2.436-6.16a.419.419,0,0,1-.014.517c-.045-.029-.1-.049-.1-.067A.638.638,0,0,1,917.9,638.446Zm-4.68-9.328c.014.118.021.179.03.272C913.136,629.311,913.116,629.251,913.215,629.118Zm2.589-4.125a.122.122,0,0,1,.092-.018.085.085,0,0,1,.022.07,1.287,1.287,0,0,1-.1.137C915.737,625.1,915.75,625.041,915.8,624.993Zm-1.257,1.26c.023-.029.088-.022.178-.042-.04.131-.067.222-.108.355C914.485,626.437,914.472,626.343,914.547,626.253Z" transform="translate(-904.58 -579.018)" fill="#fff"/>
    <path id="Path_210" data-name="Path 210" d="M950.806,655.034a1.949,1.949,0,0,1-.135-.536,2.364,2.364,0,0,0-.063-.316,7.377,7.377,0,0,1-.19-.941l-.092-.535c-.056-.309-.242-1.249-.242-1.249-.052-.26-.1-.517-.166-.775s-.108-.508-.153-.762c-.056-.309-.111-.618-.2-.921-.053-.19-.09-.383-.127-.579-.029-.149-.057-.3-.094-.447-.163-.647-.331-1.294-.51-1.935-.1-.365-.211-.726-.347-1.082-.145-.376-.279-.756-.414-1.137l-.435-1.217-.157-.481c-.085-.261-.168-.52-.261-.778a1.941,1.941,0,0,1-.092-.968,1.817,1.817,0,0,0-.012-.784,3.561,3.561,0,0,1-.068-.5l0-.145-.066-.279c-.137-.576-.272-1.153-.414-1.727a5.264,5.264,0,0,0-.512-1.29,2.41,2.41,0,0,1-.247-.728l-.069-.36a4.766,4.766,0,0,0-.4-1.209,3.418,3.418,0,0,0-.364-.524,2.826,2.826,0,0,1-.6-1.053c-.051-.2-.108-.392-.165-.588l-.12-.416c-.115-.418-.279-.836-.7-.934l-.312.283-.03-.421a.567.567,0,0,1,.023-.286,1.739,1.739,0,0,1-.235-.287.394.394,0,0,0-.263-.179L941.5,628.6c-.524-.17-1.048-.339-1.576-.5a27.588,27.588,0,0,1-3.347-1.32c-.253-.114-3.062-1.422-3.062-1.422s-1.054-.506-1.3-.62a1.034,1.034,0,0,0-.425-.1h-.042l.14,1.128.145,1.063.068.615c.016.116.1.6.1.6l.161,1.038s.1.647.129.9c0,0,.048.562.061.676l.227,1.766.16,1.351.172,1.633.025.289c.01.155.022.31.045.465a9.625,9.625,0,0,1,.111,1.121c.006.226.025.451.045.677l.119,1.344a1.574,1.574,0,0,0,.306.918c.163.2.341.39.521.576a2.646,2.646,0,0,1,.64,2.741,1.458,1.458,0,0,1-.192.38c-.06.094-.127.186-.241.337a4.428,4.428,0,0,1-.871.933,5.752,5.752,0,0,0-.677.6.487.487,0,0,0-.175.354.445.445,0,0,1-.234.417l-.116.064-.1-.071-.052.045c-.12.107-.241.212-.349.328a4.006,4.006,0,0,1-.83.68c-.449.282-.892.568-1.338.855l-.417.274c-.257.171-.514.341-.777.5q-.983.6-1.978,1.182a9.763,9.763,0,0,1-1.034.522c-.476.2-.96.38-1.448.544a2.245,2.245,0,0,1-.729.122h-.007a2.392,2.392,0,0,1-.848-.168l-.161-.068c-.354-.146-.707-.3-1.066-.428a9.174,9.174,0,0,0-1.379-.421,1.852,1.852,0,0,0-.357-.041.986.986,0,0,0-.3.042,4.834,4.834,0,0,0-1.113.5,2.985,2.985,0,0,0-.48.375c-.124.122-.242.248-.358.375-.148.159-.294.319-.453.465a1.149,1.149,0,0,1-.789.349,1.02,1.02,0,0,1-.323-.053c-.281-.09-.557-.189-.834-.289l-.89-.331-.13.492c-.172.657-.346,1.313-.511,1.972l-.092.375a24.438,24.438,0,0,0-.629,3.1.821.821,0,0,0,.286.894,6.263,6.263,0,0,0,.492.441q.64.537,1.287,1.065a.291.291,0,0,0,.163.078q.076,0,.164-.115a1.432,1.432,0,0,1,.2-.218.427.427,0,0,1,.32-.124h.016a.8.8,0,0,0,.308-.09l2.589-1.008a.634.634,0,0,1,.229-.046.484.484,0,0,1,.249.068.357.357,0,0,0,.185.038l.16,0a4.3,4.3,0,0,1,1.136.182l.982.268.138-.008a1.557,1.557,0,0,1,.377-.2.518.518,0,0,1,.193-.036l.108.01.037.016a1.665,1.665,0,0,0,.546.089c.1,0,.2.01.3.023.22.027.443.038.666.05l.347.03a3.686,3.686,0,0,0,.718.087l.365.017,1.071.1.363.026c.191.011.383.025.574.046a2.533,2.533,0,0,0,.323.018c.123,0,.588-.021.588-.021.209-.005.418-.022.628-.037l.486-.037.39-.047.193-.01.362-.056c.245-.04.49-.079.736-.1a4.511,4.511,0,0,0,.918-.2.619.619,0,0,1,.163-.029l.161.022.034.012a.857.857,0,0,0,.183-.027,1.68,1.68,0,0,1,.194-.033c.191-.016.383-.049.574-.081.161-.027.32-.053.481-.074.142-.016.284-.026.428-.033s.3-.018.444-.037a1.679,1.679,0,0,0,.165-.033,1.447,1.447,0,0,1,.334-.048c.078,0,.148.01.3.014l.144-.023.427-.006,1.13.011.435-.007a.866.866,0,0,1,.2.03l.175.017a2.543,2.543,0,0,1,.336.029,2.857,2.857,0,0,0,.287.022.737.737,0,0,0,.22-.03l.2.012a.887.887,0,0,0,.346.052l.2,0a1.492,1.492,0,0,1,.367.038.933.933,0,0,0,.211.026l.223.015c.083.007.168.015.25.015a.782.782,0,0,0,.2-.023,1.64,1.64,0,0,1,.412-.044,1.528,1.528,0,0,0,.428-.055l1.25.074.174.048a.772.772,0,0,0,.307.057,1.877,1.877,0,0,0,.3-.03,2.778,2.778,0,0,0,.975-.484,3.672,3.672,0,0,1,.454-.261,1.081,1.081,0,0,1,.444-.1,1.107,1.107,0,0,1,.531.138,2.608,2.608,0,0,1,1.022.887,1.662,1.662,0,0,0,.2.016.352.352,0,0,0,.316-.135,1.9,1.9,0,0,1,.293-.257,2.216,2.216,0,0,0,.224-.28,2.505,2.505,0,0,0,.271-.651s.256-.733.312-.908c.025-.081.045-.164.066-.246a3.241,3.241,0,0,1,.092-.331A4.315,4.315,0,0,1,949,655.7a2.061,2.061,0,0,1,.354-.476.8.8,0,0,1,.563-.232.791.791,0,0,1,.451.142.773.773,0,0,0,.469.126A.664.664,0,0,0,950.806,655.034Zm-16.562-17.521c-.189-.146.051-.284,0-.423C934.429,637.317,934.429,637.322,934.244,637.512Zm.509-6.075c-.124-.05-.155-.112-.107-.219C934.773,631.243,934.8,631.307,934.752,631.437Zm-20.385,22.938c0,.046-.063.089-.093.128a.26.26,0,0,1-.219-.278c0-.141,0-.281,0-.462a1.127,1.127,0,0,1,.22,0c.038.008.1.051.1.079A4.009,4.009,0,0,1,914.367,654.375Zm2.016,1.871c.047.045.089.068.092.094s-.037.053-.059.081c-.025-.021-.063-.036-.071-.061S916.363,656.3,916.383,656.245Zm.09.527c-.011.041-.052.074-.084.119-.115-.075-.131-.141-.086-.215s.1-.1.16-.048C916.49,656.649,916.485,656.726,916.473,656.772Zm.618-3.013c-.134,0-.185-.053-.187-.19,0-.245.146-.376.377-.316a.21.21,0,0,1,.127.126A.337.337,0,0,1,917.091,653.759Zm2.733-1.984c.073-.012.1.036.1.1,0,.034-.012.07-.029.161-.07-.073-.109-.1-.125-.135C919.745,651.846,919.747,651.786,919.824,651.775Zm-.008,1.663h.246C919.907,653.609,919.907,653.609,919.816,653.438Zm2.757,3.524-.029.026c-.01-.014-.021-.027-.029-.041a.1.1,0,0,1-.021-.041c0-.015.03-.037.047-.055l.071.075Zm2.872-4.536c-.17-.077-.193-.1-.149-.181.029-.052.07-.09.135-.056a.087.087,0,0,1,.041.038.238.238,0,0,1,.022.105A.343.343,0,0,1,925.445,652.426Zm1.6,2.3a.163.163,0,0,1-.222-.112,2.143,2.143,0,0,1,0-.27.311.311,0,0,1,.325.212C927.179,654.614,927.119,654.7,927.043,654.721Zm.237-3.422a.232.232,0,0,1-.159-.015c-.04-.022-.059-.082-.105-.155a1.206,1.206,0,0,1,.207-.1.133.133,0,0,1,.157.119A.127.127,0,0,1,927.279,651.3Zm2.456-1.7c-.011-.078.062-.107.131-.112s.116-.005.13.071-.049.144-.165.152C929.807,649.686,929.742,649.648,929.735,649.6Zm.3,4.6c-.16-.045-.16-.045-.122-.356a.107.107,0,0,1,.17.021C930.172,654,930.042,654.093,930.031,654.206Zm.791-.751-.068-.005c0-.063.01-.126.021-.25C930.868,653.325,930.87,653.39,930.822,653.455Zm2.1-4.4a.16.16,0,0,1-.064-.115c-.005-.093.071-.148.246-.189l.085.227A.178.178,0,0,1,932.919,649.06Zm.218.365c.06-.086.112-.2.252-.146.107.042.1.141.06.256C933.322,649.542,933.205,649.579,933.137,649.425Zm.63,5.16c.019.2-.1.264-.28.288-.151-.179-.159-.242-.114-.84.014-.012.026-.031.041-.036.328-.085.413.118.4.4C933.809,654.459,933.762,654.524,933.767,654.585Zm.9-2.533-.209-.19c.085-.131.192-.092.3-.089C934.8,651.9,934.795,651.984,934.663,652.052Zm.2-5.64v-.322c.178-.037.338-.053.442.172A.631.631,0,0,1,934.862,646.412Zm2.11-17.934a.2.2,0,1,1,0,.39c-.081-.005-.126-.07-.13-.183S936.884,628.48,936.972,628.477Zm.041,1.372a.132.132,0,0,1,.081.205l-.3-.067C936.856,629.852,936.913,629.812,937.013,629.849Zm-.42-2.15c-.088.063-.144.022-.2-.052C936.522,627.561,936.522,627.561,936.593,627.7Zm-.338,28.769c.149-.053.2,0,.235.1C936.371,656.633,936.314,656.583,936.255,656.468Zm.3-2.594c-.082.007-.167,0-.267,0-.03-.3.04-.406.239-.4a.25.25,0,0,1,.245.189C936.786,653.756,936.682,653.863,936.558,653.874Zm.194-10.266c-.139-.109-.081-.241-.064-.376C936.869,643.332,936.879,643.4,936.752,643.608Zm.183-2.5c-.109-.066-.127-.144-.06-.22a.632.632,0,0,0,.155-.259.087.087,0,0,1,.133-.057.117.117,0,0,1,.057.167C937.133,640.866,937.031,640.985,936.935,641.107Zm.213,5.642c-.029,0-.057-.031-.116-.063a.862.862,0,0,1,.139-.142c.012-.008.1.052.092.071C937.252,646.673,937.233,646.75,937.148,646.748Zm.574.506c-.03-.1-.063-.19-.079-.279a.13.13,0,0,1,.172-.152c.092.034.2.062.216.19C938.059,647.205,938,647.258,937.723,647.254Zm.573-8.273c-.025.034-.071.077-.105.074a.236.236,0,0,1-.135-.074c-.022-.022-.019-.07-.021-.107,0-.127.049-.2.14-.205s.144.077.141.23A.155.155,0,0,1,938.3,638.981Zm.451,10.323a.248.248,0,0,1,.011-.269C938.849,649.2,938.849,649.2,938.747,649.3Zm1.663-14.064a.3.3,0,0,1-.083-.045c.018-.018.034-.048.053-.049a.4.4,0,0,1,.116.036C940.45,635.216,940.428,635.243,940.41,635.241Zm.83.119c-.023-.034-.066-.068-.064-.1a.1.1,0,0,1,.129-.108.953.953,0,0,1,.139.056Zm.859,3.514a1.547,1.547,0,0,1-.286.023c-.027-.12-.038-.19.052-.238a.246.246,0,0,1,.242-.025.142.142,0,0,1,.071.108C942.173,638.79,942.138,638.862,942.1,638.873Zm2.568,4.7a.423.423,0,0,1-.018-.12c0-.008.011-.015.023-.022l.037-.019.014.036a.179.179,0,0,1,.012.037l0,.023C944.74,643.523,944.706,643.54,944.668,643.573Zm1.492-2.95a.141.141,0,0,1-.1.078.139.139,0,0,1-.1-.083.15.15,0,0,1,.04-.119.627.627,0,0,1,.161-.085A.811.811,0,0,1,946.16,640.622Zm2.247,5.729c.016.038.038.07.031.081a.342.342,0,0,1-.075.063.236.236,0,0,1-.014-.078C948.355,646.4,948.38,646.382,948.407,646.352Zm.105,6.565c-.008.007-.057.055-.131.127-.04-.077-.1-.144-.087-.178a1.58,1.58,0,0,0,.049-.5.724.724,0,0,1,.063-.149c.112.108.182.194.137.345A2.029,2.029,0,0,0,948.513,652.917Z" transform="translate(-901.629 -577.363)" fill="#fff"/>
    <path id="Path_211" data-name="Path 211" d="M927.148,598.692l-.126.046-.114.029h-.037c-.156,0-.264-.094-.323-.3a5.018,5.018,0,0,0-.747-1.353,4.421,4.421,0,0,0-.3-.352c-.015.174-.03.347-.032.523-.01.569-.011,1.138-.012,1.707v.425a5,5,0,0,0,.074.867,2.232,2.232,0,0,1,.027.715c-.045.315-.112.628-.179.94l-.142.65a2.758,2.758,0,0,0-.12.87.664.664,0,0,1-.029.208.933.933,0,0,0,.055.547,2.75,2.75,0,0,1,.131,2,.667.667,0,0,1-.141.245,9.639,9.639,0,0,1-1.454,1.417,1.885,1.885,0,0,0-.483.62,2.8,2.8,0,0,0,.092.384l.073.221c.107.327.213.654.342.972q.687,1.725,1.4,3.438c.347.832.708,1.658,1.087,2.527.077.176.16.352.244.527l.239.506c.085.182.171.362.238.551.027.077.075.107.338.205a.924.924,0,0,1,.174-.086c.544-.186,1.089-.369,1.637-.551l.22-.064a2.137,2.137,0,0,0,.324-.105,11.116,11.116,0,0,1,1.41-.513.369.369,0,0,0,.293-.291,1.2,1.2,0,0,0,.049-.3,2.388,2.388,0,0,0-.022-.261c-.01-.078-.019-.157-.023-.237l-.07-1.346-.036-.25a5.551,5.551,0,0,1-.063-.581,4.234,4.234,0,0,0-.118-.774,3.091,3.091,0,0,1,0-1.385,10.227,10.227,0,0,1,.323-1.005l.644-1.861.112-.271a3.823,3.823,0,0,0,.19-.5,7.4,7.4,0,0,1,.546-1.325c.079-.153.122-.246.087-.357l-.009-.122.029-.067a2.708,2.708,0,0,1,.491-1.038.859.859,0,0,0,.146-.267,5.564,5.564,0,0,1,.461-1.072l.066-.142.464-.888a1.06,1.06,0,0,0,.094-.194,2.108,2.108,0,0,0,.108-.425,1.009,1.009,0,0,1,.306-.554,1.746,1.746,0,0,0,.13-.156l.131-.189.172.15a1.085,1.085,0,0,1,.267,1.28c-.268.671-.539,1.343-.844,2a13.392,13.392,0,0,0-.68,1.652,3.768,3.768,0,0,1-.175.42s-.361.74-.443.918l-.223.5c-.109.25-.219.5-.339.745a6.729,6.729,0,0,0-.448,1.24,10.659,10.659,0,0,0-.257,1.645c-.025.235-.049.47-.081.7l-.1.759a4.344,4.344,0,0,0,0,1.428.776.776,0,0,1,0,.338l.16-.051.192-.075a1.223,1.223,0,0,1,.314-.1c.224-.031.45-.053.685-.074l.3-.029.29.012-.122.439-.055.048a2.527,2.527,0,0,1-.3.219,2.585,2.585,0,0,0-.622.588,2.772,2.772,0,0,1,.274-.071c.364-.067.729-.119,1.164-.174.042,0,.475.045.475.045l-.088.249a.683.683,0,0,1-.469.416l-2.255.871a4.443,4.443,0,0,0-.734.335,3.629,3.629,0,0,1-.708.33c-.886.306-1.777.6-2.667.893a1.407,1.407,0,0,1-.471.066h-.042a.93.93,0,0,0-.421.108l-.23.113-.154.064a1.05,1.05,0,0,1-.855.752l-.364.092c-.387.09-.774.182-1.163.264a1.205,1.205,0,0,1-.252.029.785.785,0,0,1-.211-.027.532.532,0,0,0-.159-.023.806.806,0,0,0-.313.072l-2.378.953c-.595.238-1.187.476-1.777.725-.169.071-.335.15-.5.228-.238.114-.476.226-.719.319a9.8,9.8,0,0,0-1.725.9c-.234.146-.459.309-.684.47q-.236.17-.476.335c-.588.4-1.134.832-1.591,1.2-.554.453-1.1.912-1.622,1.4-.189.178-.384.347-.578.517l-.254.223a1.271,1.271,0,0,0-.4.6,5.629,5.629,0,0,0-.187,1.13,2.861,2.861,0,0,0,.026.522,1.166,1.166,0,0,0,.192-.222c.171-.312.327-.633.49-.949.06-.118.159-.128.245-.025a1.839,1.839,0,0,1,.126.182,2.888,2.888,0,0,1-.595,1.34.343.343,0,0,1-.075-.064.175.175,0,0,0-.239-.075c-.06.02-.09.025-.116.012.007.045.011.088.018.134a3.308,3.308,0,0,1,.032.643l.107.105a.517.517,0,0,1,.179-.03,1.669,1.669,0,0,1,.38.071.952.952,0,0,1,.726.465,2.187,2.187,0,0,0,.3.42c.255.275.524.538.8.793a2.345,2.345,0,0,0,.2.165,3.411,3.411,0,0,1-.178-.584c-.015-.067-.034-.133-.051-.2a2.413,2.413,0,0,1-.074-.308,7.224,7.224,0,0,0-.2-.933.658.658,0,0,1,.034-.51.49.49,0,0,1,.465-.31h.036a.439.439,0,0,1,.349.431,2.106,2.106,0,0,0,.484.994.3.3,0,0,0,.029.042c.008-.037.019-.074.029-.111l.193-.62c.1-.352.2-.7.289-1.056a.387.387,0,0,1,.4-.315.364.364,0,0,1,.342.382,2.029,2.029,0,0,0,.235.732c.149.265.3.531.457.793a.422.422,0,0,1,.07-.319l.271-.4.093-.093h.108a.355.355,0,0,1,.354.258c.055.148.111.3.174.439a.3.3,0,0,0,.063.105,17.548,17.548,0,0,0,1.227-1.439.388.388,0,0,1-.282-.245l0-.15.026-.07a2.775,2.775,0,0,1,.118-.279,4.4,4.4,0,0,1,.2-.4c.155-.253.313-.5.472-.754l.06-.122-.353.16-.087-.047a.415.415,0,0,1-.2-.436.888.888,0,0,1,.528-.9,2.556,2.556,0,0,0,.392-.215l.511-.306c.256-.153.51-.306.773-.443a7.721,7.721,0,0,1,.707-.31l.193-.077a1.222,1.222,0,0,1,.294-.074l.981-.145a1.094,1.094,0,0,1,.219-.029l3.013-.005a2.171,2.171,0,0,0,.341-.018,1.027,1.027,0,0,1,.172-.014,1.286,1.286,0,0,1,.926.4l.062.067v-.04a.342.342,0,0,1,.179-.285,1.45,1.45,0,0,1,.423-.2c.2-.049.41-.078.617-.108l1.156-.172c.187-.031.378-.063.569-.081a1.258,1.258,0,0,0,.6-.171l.06-.044.239.019c.045,0,.2.008.222.008.118-.018.235-.03.354-.044a4.245,4.245,0,0,0,.58-.088,7.852,7.852,0,0,1,.948-.145l.531-.071a1.451,1.451,0,0,1,.261-.037,4.538,4.538,0,0,0,1.457-.282,2.36,2.36,0,0,0,.938-.557,4.7,4.7,0,0,0,.6-.8,4.79,4.79,0,0,0,.388-.821l.227-.595.071-.17.135-.436c.09-.3.182-.595.279-.892a.759.759,0,0,0,.023-.5c-.1-.309-.03-.461.273-.6a.241.241,0,0,0,.149-.161c.1-.291.216-.581.326-.87,0,0,.431-1.142.6-1.571s.6-1.518.6-1.518c.108-.268.216-.537.335-.8a5.366,5.366,0,0,0,.345-.91,6.544,6.544,0,0,1,.778-1.968c.037-.06.081-.116.123-.172a1.208,1.208,0,0,0,.123-.182,1.363,1.363,0,0,0,.079-.226c.022-.071.042-.141.07-.211l.522-1.272c.094-.234.18-.471.263-.708a6.071,6.071,0,0,0,.257-1.1c-.131.172-.263.346-.389.523l-.216.308c-.094.138-.19.278-.293.413-.163.213-.339.417-.572.687-.167.2-.336.4-.516.58a1.214,1.214,0,0,1-.685.357c-.155.023-.825.105-.825.105l-.336-.521.053-.105a.761.761,0,0,1,.6-.4.908.908,0,0,0,.487-.253c.108-.112.226-.216.344-.319l.314-.282c.123-.111.248-.22.359-.342a8.679,8.679,0,0,0,.682-.885l.092-.129a4.805,4.805,0,0,0,.706-1.524,1.373,1.373,0,0,0,.082-.383c0-.127.007-.254.012-.382a2.62,2.62,0,0,0-.109-1.089,4.484,4.484,0,0,0-.674-1.841.836.836,0,0,1-.133-.217,1.9,1.9,0,0,0-.365-.551,5.184,5.184,0,0,0-2.054-1.455,1.431,1.431,0,0,0-.183-.057c-.074-.021-.149-.042-.222-.07a5.858,5.858,0,0,0-1.544-.352l-.282-.021a4.243,4.243,0,0,1-.494-.049,2.973,2.973,0,0,0-.5-.044,3.564,3.564,0,0,0-.821.1l-.279.071c-.146.04-.293.079-.44.108-.419.082-.839.157-1.258.23a.194.194,0,0,1-.068.119.271.271,0,0,1-.063-.1l-.118.022-.178.03a4.944,4.944,0,0,1-.908.1c-.332,0-.663-.018-1-.036l-.548-.036-.228-.033c-.171-.026-.341-.052-.513-.062a.717.717,0,0,1-.562-.347.6.6,0,0,0-.134-.154.886.886,0,0,1-.372-.583c-.025-.064-.05-.138-.112-.3a1.178,1.178,0,0,1-.319-.331l-.232.172c-.3.219-.594.434-.877.661a1.024,1.024,0,0,0-.391.811Zm-2.006,8.437c-.074-.113-.068-.2.014-.346C925.207,606.936,925.222,607.019,925.142,607.129Zm.283,2.879c-.016.011-.068,0-.072-.008a.19.19,0,0,1-.019-.12c.014-.036.059-.059.113-.108a.618.618,0,0,1,.031.153A.133.133,0,0,1,925.425,610.008Zm.35-1.556c-.189.074-.289.011-.292-.205-.029-.13.066-.211.16-.29a.186.186,0,0,1,.235-.012.213.213,0,0,1,.115.237A.352.352,0,0,1,925.775,608.451Zm.265-3.019c-.113.052-.167,0-.221-.094l.179-.171A.274.274,0,0,1,926.04,605.433Zm7.535,4.241c.016-.082.03-.142.047-.22.047.029.078.037.087.055C933.765,609.619,933.7,609.651,933.575,609.674Zm.542-2.568a.188.188,0,0,1,.048-.263C934.276,607,934.276,607,934.116,607.106Zm-20.388,21.049a1.658,1.658,0,0,1-.171.294c-.1.131-.228.115-.316-.031-.01-.015-.015-.034-.025-.051-.192-.357-.186-.4.1-.686.033-.033.068-.064.113-.108a.78.78,0,0,1,.312.42A.219.219,0,0,1,913.728,628.154Zm8.581-5.526c.072-.138.072-.138.2-.056C922.458,622.662,922.4,622.685,922.309,622.629Zm9.964-2.761a.133.133,0,0,1,.222-.072c.081.059.093.1.089.293l-.313.089A2.054,2.054,0,0,1,932.273,619.867Zm.358,2.378a.225.225,0,0,1-.168.066.2.2,0,0,1-.129-.088c-.023-.033-.014-.089-.019-.134a.65.65,0,0,1,.023-.139.124.124,0,0,1,.16-.077A.267.267,0,0,1,932.631,622.246Zm.941-3.286c.019.081.034.142.055.228C933.439,619.1,933.441,619.1,933.572,618.959Zm.033,2.378c-.152-.1-.031-.175.018-.254A.156.156,0,0,1,933.6,621.338Zm1.336-8.541c-.048.12-.142.153-.277.123-.1-.025-.123-.1-.122-.193v-.253h0c0-.066,0-.131,0-.2a.242.242,0,0,1,.238-.254.222.222,0,0,1,.123.049.142.142,0,0,1,.042.071A.884.884,0,0,1,934.941,612.8Zm.027,9.3c.29.063.29.064.3.291C934.968,622.471,934.923,622.432,934.968,622.1Zm5.647-10.244a1.152,1.152,0,0,1-.17.04c-.067,0-.105-.037-.088-.1s.078-.07.13-.047C940.52,611.758,940.543,611.791,940.615,611.856Zm-.29-1.8c.055.041.094.056.105.083a.244.244,0,0,1,.008.126c0,.014-.047.03-.07.029-.074-.006-.078-.064-.075-.12A.588.588,0,0,1,940.326,610.058Zm-.346-2.934c.105.093.108.174,0,.263C939.866,607.3,939.871,607.216,939.979,607.125Zm-1.007-2.239a1.812,1.812,0,0,1,.245.165.186.186,0,0,1,0,.256.208.208,0,0,1-.259-.01C938.838,605.2,938.836,605.073,938.973,604.886ZM938.039,599a1.007,1.007,0,0,0,.263-.409c.2.153.205.182.082.324-.078.09-.155.182-.239.285C938.026,599.151,937.966,599.055,938.039,599Zm-.053,2.321a.666.666,0,0,1,.006.384c-.164-.049-.149-.151-.146-.241S937.876,601.32,937.985,601.32Zm-.528,10.448c.032-.093.064-.2.2-.212a.261.261,0,0,1,.319.151.641.641,0,0,1,.038.092,1.416,1.416,0,0,1-.171.208.543.543,0,0,1-.212.114.137.137,0,0,1-.178-.13A.524.524,0,0,1,937.457,611.768Zm-1.243,9.541c.012.118.019.179.03.275C936.136,621.5,936.116,621.443,936.214,621.309Zm-.077-17.6a.241.241,0,0,1,.279.083.3.3,0,0,1,.05.181.466.466,0,0,1-.369.3c-.158,0-.206-.07-.19-.271A.365.365,0,0,1,936.138,603.7Zm-4.189-2.5c.04.1.047.189-.057.259C931.783,601.3,931.783,601.3,931.948,601.2Zm-.541,2.626.071.077-.068.06a.254.254,0,0,1-.049-.081C931.358,603.87,931.389,603.848,931.407,603.829Zm-.5,3.3.04.014-.026.12-.067-.023Zm-2.228-5.694.044.018c-.014.04-.029.079-.044.119l-.044-.021A1.178,1.178,0,0,1,928.678,601.438ZM927.439,611.8a.412.412,0,0,1-.429.259.356.356,0,0,1-.094-.332.294.294,0,0,1,.406-.22A.2.2,0,0,1,927.439,611.8Zm-.133-4.557.07.056-.068.079c-.018-.016-.051-.038-.048-.052A.255.255,0,0,1,927.307,607.247Z" transform="translate(-902.407 -587.668)" fill="#fff"/>
    <path id="Path_212" data-name="Path 212" d="M940.747,606.285c0-.144.016-.287.027-.43l.008-.119c-.113.149-.226.3-.34.443a2.225,2.225,0,0,0-.4.781,13.34,13.34,0,0,1-.792,1.942l-.062.13a.636.636,0,0,0-.078.283,2.189,2.189,0,0,1-.12.7l-.074.269c-.093.332-.185.665-.248,1a5.048,5.048,0,0,1-.423,1.186,3.842,3.842,0,0,0-.283.729,4.963,4.963,0,0,1-.353,1.1.949.949,0,0,1-.609.533,2.509,2.509,0,0,0-.125.341l-.016.053a.635.635,0,0,1,.124.576,9.213,9.213,0,0,1-.469,1.649,2.415,2.415,0,0,1-.269.542c-.3.423-.629.829-.955,1.236l-.093.118a7.674,7.674,0,0,0-.729,1.04.727.727,0,0,0,0,.689,1.1,1.1,0,0,0,.331.408.335.335,0,0,0,.242.085.605.605,0,0,0,.068,0c.226-.064.454-.116.682-.168l1.1-.257c.626-.148,1.254-.3,1.875-.462a2.489,2.489,0,0,1,.661-.093,2.207,2.207,0,0,1,.5.059.482.482,0,0,1,.19.107l.179.115-.122.175a1.506,1.506,0,0,1-.849.656.409.409,0,0,0-.212.1l-.187.093h-.1a2.38,2.38,0,0,0-.855.212c-.626.246-1.264.457-1.9.667,0,0-.777.25-.894.293a.666.666,0,0,1-.234.044.714.714,0,0,1-.362-.107,10.346,10.346,0,0,0-.971-.479,13.935,13.935,0,0,0-1.777-.588,5.828,5.828,0,0,0-1.477-.249h-.786c-.159,0-.319,0-.475.015l-2.243.19c-.294.023-.588.048-.955.088a.807.807,0,0,1-.477-.2l-.155-.174v-.018l-.008.052a.52.52,0,0,1-.488.443c-.3.042-.607.085-.914.108-.272.022-.547.037-.822.049l-.421.022-1.1.1c-.246.021-.494.042-.742.053l-.163.109a1.016,1.016,0,0,0-.092.108l-1.67,2.429s-.619.945-.751,1.138l-1.253,1.829a.511.511,0,0,0,.005.621l.7,1.1a1.1,1.1,0,0,0,.327.341,1.745,1.745,0,0,1,.333.3,8.3,8.3,0,0,1,.989,1.366c.152.256.282.524.412.792l.146.3a.848.848,0,0,0,.263.373,1.87,1.87,0,0,1,.662.793.564.564,0,0,1,.053.449.466.466,0,0,0,.074.419c.443.691.88,1.385,1.317,2.079l.4.635.224.375a5.815,5.815,0,0,0,.744,1.072,1.169,1.169,0,0,1,.155.227l.1.179c.061.111.123.221.193.328l.268.4c.164.237.328.475.472.726l.205.352a10.579,10.579,0,0,1,.584,1.085,10.2,10.2,0,0,1,.568,1.545,2.151,2.151,0,0,0,.44.873c.067.079.129.163.265.354l.075.1-.133.265a3.992,3.992,0,0,0-.174.373,2.022,2.022,0,0,0-.141.42l-.056.36a8.99,8.99,0,0,1-.238,1.221,8.661,8.661,0,0,1-.889,2.02,10.84,10.84,0,0,1-1.015,1.406,10.5,10.5,0,0,1-.729.788c-.252.243-.514.476-.776.708l-.509.453c-.3.268-.6.536-.9.8l-1.676,1.44c-.12.1-.242.208-.357.317a.833.833,0,0,0-.219.75l.963.587c.041-.164.081-.321.127-.477.068-.231.141-.464.231-.689s.2-.435.32-.682c.192-.382.294-.538.49-.652l.249-.09.064.268.021.123-.118.964c-.018.134-.036.268-.041.4a1.111,1.111,0,0,0,.018.189l.021.142.062.78.011,0c.06-.068.067-.112.09-.28a3.278,3.278,0,0,1,.416-1.16.614.614,0,0,1,.419-.343l.268.119-.038.451a2.571,2.571,0,0,0-.018.306c0,.17.021.339.037.508l.016.157a.337.337,0,0,0,.034.122,1.329,1.329,0,0,0,.152-.083.4.4,0,0,0,.189-.254s.1-.539.131-.7a2.4,2.4,0,0,1,.122-.357.354.354,0,0,1,.367-.211h.02a.325.325,0,0,1,.235.186c.028-.031.063-.059.092-.089.135.122.135.122.142.3a.261.261,0,0,1-.175.007c0,.161,0,.524,0,.524a.81.81,0,0,1,0,.19c.193-.059.223-.131.215-.264a1.114,1.114,0,0,1,.227-.646l.234-.142h.114a.423.423,0,0,1,.2.13.493.493,0,0,1,.277-.084.812.812,0,0,1,.3.07l.091.037.105.159,2.638-1.778a.929.929,0,0,0,.116-.105,1.452,1.452,0,0,1,.142-.131c.055-.042.114-.079.172-.116a1.083,1.083,0,0,0,.178-.126c.343-.338.681-.68,1.082-1.113a2.54,2.54,0,0,1,.832-.674,3.326,3.326,0,0,0,.346-.182l-.041-.029.061-.187.041-.1.585-.494a1.4,1.4,0,0,1,.383-.222,1.549,1.549,0,0,0,.062-.156l.062-.215a2.357,2.357,0,0,1,.194-.542.384.384,0,0,0,.026-.157c.005-.2,0-.41,0-.614a.526.526,0,0,0-.026-.174,3.37,3.37,0,0,0-.633-1.018,8.161,8.161,0,0,0-1.089-.94,4.379,4.379,0,0,1-1.556-1.875c-.067-.163-.129-.326-.185-.492l-.06-.17a1.818,1.818,0,0,1-.14-.531,3.537,3.537,0,0,0-.092-.539,5.119,5.119,0,0,1-.134-.886l-.057-.278c-.052-.242-.1-.483-.137-.73-.008-.063-.022-.124-.036-.186a1.571,1.571,0,0,1-.056-.518l-.073-.416a7.776,7.776,0,0,0-.483-1.695l-.51-1.157c-.182-.4-.362-.8-.558-1.186a.766.766,0,0,0-.234-.254.833.833,0,0,1-.309-.408c-.078-.221-.153-.442-.236-.662l-.45-1.187c-.057-.145-.473-1.142-.473-1.142a.237.237,0,0,1-.067.008l-.161-.036-.057-.052a.39.39,0,0,1-.093-.324l.034-.238.1.008c-.051-.193-.1-.382-.159-.569a.491.491,0,0,1,.123-.512l.175-.064.118.03a1.2,1.2,0,0,1,.3.12.977.977,0,0,1,.491.438c.082.175.16.35.23.529l1.916,4.925c.174.447.347.9.512,1.347.237.651.468,1.3.687,1.96.082.254.15.516.219.776l.1.378a7.282,7.282,0,0,1,.159.815c.025.16.048.319.081.477.067.336.145.67.225,1,.071.3.141.6.2.893a1.155,1.155,0,0,0,.443.684,1.9,1.9,0,0,0,.108-.518,1.421,1.421,0,0,0-.047-.384l-.674-3.467-.2-1.169c-.023-.126-.051-.252-.078-.376a4.239,4.239,0,0,1-.129-.982,1.019,1.019,0,0,0,0-.2,4.551,4.551,0,0,1-.044-.872l0-.241c0-.131.011-.264.021-.4l.016-.236,0-.242a2.847,2.847,0,0,1,.036-.51,5.068,5.068,0,0,0,.014-1.359,9.634,9.634,0,0,0-.265-1.3,7.987,7.987,0,0,0-.647-1.7c-.179-.349-.386-.684-.591-1.019l-.964-1.6a3.35,3.35,0,0,0-.875-1.068,3.468,3.468,0,0,0-.312-.205,2.846,2.846,0,0,1-.474-.364c-.083-.074-.167-.148-.256-.215a2.343,2.343,0,0,1-.771-.941l-.018.005c-.018-.038-.035-.075-.049-.115l.014-.007a2.185,2.185,0,0,1-.109-.393.455.455,0,0,1,.362-.607.643.643,0,0,1,.2-.038.373.373,0,0,1,.346.316c.023.07.038.139.055.209a.554.554,0,0,0,.186.323c.267.235.529.475.793.715l.366.335.391.343c.293.256.588.511.859.792a8.26,8.26,0,0,0,.654.584,9.017,9.017,0,0,1,.674.6c.211.216.442.41.674.607.179.15.358.3.528.461a16.655,16.655,0,0,0,2.225,1.745,2.16,2.16,0,0,0,.889.325,1.5,1.5,0,0,1,.469.129c.5.238.989.487,1.481.736l1.06.554a.853.853,0,0,0,.4.109.714.714,0,0,0,.278-.057.656.656,0,0,1,.257-.055.645.645,0,0,1,.3.077c.053.029.111.045.092.081l.219-.071c.171-.055.328-.105.484-.163a.5.5,0,0,0,.159-.075,2.463,2.463,0,0,0,.568-.964c.085-.294.175-.585.276-.874.078-.217.161-.432.245-.647l.16-.471.026-.138a2.912,2.912,0,0,1,.071-.32c.053-.186.276-.893.276-.893l.048-.182c.016-.066.037-.13.056-.194-.085.015-.13,0-.208-.107a.183.183,0,0,1,.233.022c0-.012.005-.026.009-.037.036-.1.079-.189.123-.283a2.271,2.271,0,0,0,.111-.257,1.135,1.135,0,0,0,.078-.71,1.13,1.13,0,0,1-.028-.345l.021-.372c.012-.2.026-.39.026-.585a3.027,3.027,0,0,0-.022-.335,3.536,3.536,0,0,1-.023-.432,6.258,6.258,0,0,0-.205-1.808l-.025-.131.035-.248c.015-.1.03-.208.038-.31a4.768,4.768,0,0,0,0-.594c-.014-.2-.033-.4-.052-.6-.029-.317-.059-.635-.07-.953l-.011-.335c-.01-.285-.021-.569-.021-.853a3.6,3.6,0,0,0-.034-.42,3.239,3.239,0,0,1-.031-.607,2.9,2.9,0,0,0-.011-.408,2.358,2.358,0,0,1,.03-.77l-.042-.384a4.353,4.353,0,0,1,.141-1.29c.026-.118.063-.232.1-.349.033-.1.066-.2.089-.3l.151-.681c.055-.261.111-.523.174-.782a.427.427,0,0,0-.052-.356c-.057-.089-.117-.178-.186-.264l-.526-.669a1.56,1.56,0,0,1-.129-.226l-.061-.174.247-.182.1.034a3.348,3.348,0,0,1,.836.468c.131.094.265.187.431.316l.018-.14-.319-1.982-.525-2.982A5.043,5.043,0,0,1,940.747,606.285ZM937.22,619.1c-.055-.122.049-.182.14-.25a.244.244,0,0,1,.163.327C937.4,619.186,937.28,619.238,937.22,619.1Zm.961-1.294a.671.671,0,0,1,.109-.373.228.228,0,0,1,.166.223Zm-17.65,13.606v-.237C920.683,631.216,920.683,631.216,920.531,631.416Zm.264-1.8a.417.417,0,0,1-.222-.354,1.03,1.03,0,0,1,.1-.062.647.647,0,0,1,.072-.03C920.961,629.344,920.973,629.434,920.8,629.612Zm1.515-2.352a.132.132,0,0,1-.111.056.129.129,0,0,1-.073-.1.569.569,0,0,1,.071-.167C922.323,627.1,922.362,627.168,922.31,627.259Zm.027-1.294c0-.063.025-.112.1-.105a.119.119,0,0,1,.12.126c0,.04-.055.075-.071.1C922.371,626.086,922.334,626.046,922.338,625.965Zm.342,10.52-.052,0-.033-.13.1-.005Zm-.03-1.54c-.2-.2-.2-.26.033-.418C922.767,634.739,922.763,634.791,922.65,634.946Zm.28.434a.194.194,0,0,1-.1-.3C922.979,635.141,922.974,635.237,922.93,635.379Zm2.533,19.131a.16.16,0,0,1-.209.021.124.124,0,0,1-.053-.17c.036-.083.092-.092.263-.04Zm.2-14.395c.042,0,.09.037.127.068.016.012.016.052.015.078a1.294,1.294,0,0,1-.033.145,1.6,1.6,0,0,1-.156-.141C925.577,640.21,925.6,640.118,925.665,640.116Zm-.105-.58c.008.064.021.127.023.19a1.475,1.475,0,0,1-.012.18c-.155.027-.209-.036-.212-.149C925.356,639.629,925.41,639.568,925.56,639.536Zm-.26-1.249.048.119-.044.018c-.016-.038-.033-.075-.046-.114Zm2.644-1.711c.07.093.07.093,0,.211a.558.558,0,0,1-.027-.108A.575.575,0,0,1,927.944,636.576Zm-3.609-9.132c.267.115.311.165.271.328a.183.183,0,0,1-.1.119.171.171,0,0,1-.145-.048.429.429,0,0,1-.085-.2A.583.583,0,0,1,924.335,627.444Zm-.06-3.88c-.055-.118-.055-.118-.014-.254C924.428,623.42,924.429,623.427,924.274,623.564Zm5.88,1.08a.228.228,0,0,1,.176-.15.1.1,0,0,1,.073.03.1.1,0,0,1,.011.077C930.376,624.691,930.295,624.7,930.154,624.644Zm6.258.523c0-.156.042-.228.114-.208.117.034.109.131.088.257h-.17C936.43,625.2,936.413,625.18,936.413,625.167Zm.155,5.8a.133.133,0,0,1-.089-.033.206.206,0,0,1-.02-.1c0-.036,0-.071.015-.088a.126.126,0,0,1,.086-.045c.076.007.076.074.068.126A.331.331,0,0,1,936.567,630.97Zm.3-6.655-.168.152C936.722,624.268,936.722,624.268,936.868,624.315Zm-.129,5.742c.13-.07.187-.022.235.094C936.834,630.2,936.787,630.151,936.74,630.056Z" transform="translate(-900.114 -584.313)" fill="#fff"/>
    <path id="Path_213" data-name="Path 213" d="M915.413,594.895a6.974,6.974,0,0,0,.651.3l.38.152a2.125,2.125,0,0,1,.231.087,4.957,4.957,0,0,0,.9.305.522.522,0,0,0,.219-.057l.293-.137c.17-.081.338-.16.511-.231a4.484,4.484,0,0,1,1.727-.368,3.746,3.746,0,0,1,.852.1l.18.019a1.008,1.008,0,0,1,.572.223,6.983,6.983,0,0,1,1.188.942c.058.059.109.122.161.186s.1.119.153.173l.1.1c.289.28.577.563.881.827a2.551,2.551,0,0,0,.509.32.272.272,0,0,0,.129.03.564.564,0,0,0,.2-.042.581.581,0,0,0,.329-.4,2.889,2.889,0,0,0,.215-1.375c-.015-.128-.081-.558-.081-.558a2.144,2.144,0,0,0-.092-.425,1.838,1.838,0,0,1-.177-.971l-.088-.383a7.657,7.657,0,0,0-.215-.829,3.9,3.9,0,0,0-1.037-1.515,2.442,2.442,0,0,0-.282-.25,5.787,5.787,0,0,0-1.383-.78,3.931,3.931,0,0,0-1.262-.267l-.2.019a4.675,4.675,0,0,0-.481.06c-.235.047-.469.1-.7.154s-.45.1-.677.148-1.6.29-1.6.29a1.751,1.751,0,0,0-.624.182,4.369,4.369,0,0,1-.562.278.633.633,0,0,0-.334.289.584.584,0,0,1-.409.349c-.063.011-.092.03-.14.19a11.659,11.659,0,0,0-.49,2.165.5.5,0,0,0,.079.382A1.421,1.421,0,0,0,915.413,594.895Zm9.064-2.108c-.067.141-.142.105-.216.072l0-.061Zm-.085,1.085c.026.272.026.272-.1.369C924.2,593.986,924.218,593.9,924.392,593.871Zm-3.556-.737.04.014-.026.119-.067-.023Zm-4.269-.435a.431.431,0,0,1,.033.12c0,.019-.031.036-.049.053a.3.3,0,0,1-.044-.086C916.5,592.771,916.532,592.749,916.567,592.7Z" transform="translate(-900.766 -590.072)" fill="#fff"/>
    <path id="Path_214" data-name="Path 214" d="M911.744,619.378l.174-.145c.174-.142.357-.275.538-.406.206-.149.411-.3.606-.464.4-.343.829-.659,1.255-.975l.254-.189a4.225,4.225,0,0,0,1.071-1.134,4.922,4.922,0,0,0-1.183-1.232,3.271,3.271,0,0,0-1.917-.652,5.2,5.2,0,0,0-1.394.213,2.664,2.664,0,0,0-1.332.854,3.236,3.236,0,0,0-.74,1.964,4.613,4.613,0,0,0,.045,1,7.759,7.759,0,0,0,.38,1.483c.053.153.107.3.145.462a.668.668,0,0,0,.259.41,1.37,1.37,0,0,0,.6-.246,3.334,3.334,0,0,0,.353-.267,4.544,4.544,0,0,1,.365-.276A5.111,5.111,0,0,0,911.744,619.378Zm-.305-1.7a.949.949,0,0,1,.714-.568.466.466,0,0,1,.335.125,1.4,1.4,0,0,1,.1.1c.306.329.32.431.089.814a1.279,1.279,0,0,1-.565.561c-.214-.239-.42-.472-.627-.706A.352.352,0,0,1,911.439,617.674Zm-2.1.108h-.029c-.031-.037-.06-.075-.089-.113.021-.01.051-.034.063-.027C909.344,617.67,909.4,617.707,909.342,617.782Zm1.3-1.429a.424.424,0,0,1,.033.122c0,.018-.031.034-.051.052a.289.289,0,0,1-.042-.088C910.584,616.423,910.611,616.4,910.647,616.353Zm.021,2.179c-.09,0-.134-.055-.151-.139a.372.372,0,0,0-.014-.053c-.049-.148-.025-.232.071-.252a.219.219,0,0,1,.221.176.341.341,0,0,1,0,.071C910.8,618.46,910.75,618.53,910.668,618.532Z" transform="translate(-902.931 -581.208)" fill="#fff"/>
    <path id="Path_215" data-name="Path 215" d="M914.816,601.74l.019.023a2.4,2.4,0,0,0,.164-.234l-.082.074c-.077.1-.093.137-.1.137Z" transform="translate(-900.817 -585.859)" fill="#fff"/>
    <path id="Path_216" data-name="Path 216" d="M915.442,596.257a.14.14,0,0,0,0-.166l-.118-.17a2.127,2.127,0,0,0-.371-.453.314.314,0,0,1-.131.435l-.1.045h-.055a.283.283,0,0,1-.176-.062l-.041.022a1.415,1.415,0,0,0,.168.833.2.2,0,0,0,.168.1.291.291,0,0,0,.14-.042A1.706,1.706,0,0,0,915.442,596.257Z" transform="translate(-900.953 -588.088)" fill="#fff"/>
    <path id="Path_217" data-name="Path 217" d="M920.482,643.168a3.017,3.017,0,0,1-.974.557c-.077.022-.152.052-.257.091-.174.064-.194.094-.2.275,0,0-.01.4-.018.52L919,645.1c-.021.287-.042.576-.052.862a3.077,3.077,0,0,0,.041.558c.019.131.048.263.078.4l.045.207.056-.169a1.085,1.085,0,0,1,.164.011l.089.007a.926.926,0,0,0,.559-.243c.263-.2.535-.388.806-.577l.219-.152a1.666,1.666,0,0,1,.144-.085.934.934,0,0,0,.222-.157,5.767,5.767,0,0,0,.894-.893c.425-.568.8-1.165,1.177-1.764l.309-.49c.126-.2.242-.4.36-.6.149-.257.3-.513.465-.761.149-.223.283-.459.416-.695l.851-1.473c.049-.085.105-.164.16-.246.047-.067.093-.133.134-.2a1.182,1.182,0,0,0,.239-.771l-.025-.164c-.019-.118-.038-.234-.048-.351a1.814,1.814,0,0,0-.387-.929c-.19-.257-.372-.521-.553-.785l-.294-.427c-.133-.187-.268-.371-.484-.658l-2.162-2.913-.09-.107a1.4,1.4,0,0,1-.187-.257,5.316,5.316,0,0,0-.514-.77c-.093-.123-.423-.579-.423-.579a3.8,3.8,0,0,1-.4-.622.914.914,0,0,0-.628-.542,1.147,1.147,0,0,1-.309-.134,1.168,1.168,0,0,1-.361-.252,1.826,1.826,0,0,0-1.053-.58,4.59,4.59,0,0,1-1.123-.365.688.688,0,0,0-.27-.09l-.183.034-.12-.018s-.427-.165-.62-.246c-.246-.1-.491-.212-.733-.321q-.16-.072-.324-.156a.857.857,0,0,1,.174.3c.062.178.116.36.17.54l.085.278a.563.563,0,0,1,.022.327,1.014,1.014,0,0,0,.033.583l.06.174c.152.442.3.884.464,1.324l.116.326c.26.726.52,1.451.795,2.173.105.279.205.558.3.839.208.58.414,1.158.673,1.721a17.14,17.14,0,0,0,1.136,2.127,6.89,6.89,0,0,0,.5.667l.543.688c.228.291.458.583.677.879a3.677,3.677,0,0,1,.741,1.749,1.349,1.349,0,0,1-.294,1.033A5.519,5.519,0,0,1,920.482,643.168Zm-.418-8.752c-.038-.153-.042-.25.113-.293A.2.2,0,0,1,920.063,634.416Zm.4-2.556c-.238-.154-.246-.235-.077-.473C920.558,631.515,920.479,631.675,920.461,631.86Zm1.96,5.207c-.113-.075-.1-.208-.159-.326a.685.685,0,0,1,.161-.051.134.134,0,0,1,.088.057A.241.241,0,0,1,922.421,637.067Zm-.234-3.1c.137-.042.233.022.294.168a.231.231,0,0,1-.308.081.156.156,0,0,1-.076-.129A.164.164,0,0,1,922.187,633.962Zm-1.138.438c-.141-.03-.108-.12-.09-.183.025-.082.094-.112.228-.067Zm.126-1.878c-.07-.18-.07-.18.085-.271C921.3,632.366,921.3,632.459,921.175,632.522Zm.353,5.283a.156.156,0,0,1,.072-.131.308.308,0,0,1,.371.071c-.13.179-.22.228-.346.178A.17.17,0,0,1,921.528,637.805Z" transform="translate(-900.717 -576.63)" fill="#fff"/>
    <path id="Path_218" data-name="Path 218" d="M917.52,599.741a1.312,1.312,0,0,0-.376.191l1,.536c.2.1.624.309.624.309-.055-.071-.111-.14-.17-.205-.286-.31-.583-.609-.894-.905C917.643,599.694,917.582,599.718,917.52,599.741Z" transform="translate(-899.961 -586.544)" fill="#fff"/>
    <path id="Path_219" data-name="Path 219" d="M916.067,599.2c.019-.177.037-.354.052-.531l.02-.284.023-.046a1.082,1.082,0,0,0,.073-.486c0-.089,0-.176.008-.264.015-.168.019-.2-.1-.317a2.716,2.716,0,0,0-.435.71.354.354,0,0,0,.014.14c.047.166.1.33.193.611C915.915,598.732,916.033,599.1,916.067,599.2Z" transform="translate(-900.49 -587.425)" fill="#fff"/>
    <path id="Path_220" data-name="Path 220" d="M921.06,595.715l.06.021a7.9,7.9,0,0,0-.941-.97.86.86,0,0,0-.531-.274l-.291,0c-.118,0-.244,0-.377.011l.049.031c.188.118.373.234.55.364A5.989,5.989,0,0,0,921.06,595.715Z" transform="translate(-899.286 -588.448)" fill="#fff"/>
    <path id="Path_221" data-name="Path 221" d="M920.327,596.747h-.042c-.116-.027-.231-.059-.346-.092,0,0-1.241-.334-1.6-.424a2.1,2.1,0,0,0-.522-.07,1.643,1.643,0,0,0-.509.079c-.261.085-.514.19-.765.291l-.23.093a.431.431,0,0,0-.023.1,2.878,2.878,0,0,0,1.046.226,1.308,1.308,0,0,0,.522-.093l.088-.038.219.119a5.2,5.2,0,0,0,.569.049l.635.008c.274,0,.546,0,.818.012.465.018.561.3.6.61l.018.171-.164.049c-.339.1-.683.194-1.026.287l-.684.19a12.937,12.937,0,0,1-1.639.349l0,.32a.963.963,0,0,1-.021.361,1.382,1.382,0,0,0,.008.594l.029.194a.513.513,0,0,0,.048.179.548.548,0,0,0,.118-.127s.234-.332.3-.421a1.136,1.136,0,0,1,.626-.406,1.4,1.4,0,0,1,.3-.033,1.328,1.328,0,0,1,.785.26,6.166,6.166,0,0,1,.618.5,2.748,2.748,0,0,0,.655.439.726.726,0,0,0,.205.067.8.8,0,0,1,.641.507l.465,1.067a1.976,1.976,0,0,1,.1.267.375.375,0,0,1-.2.48.734.734,0,0,1-.16.071l-.12.048-.1-.088a2.317,2.317,0,0,1-.469-.7,1.309,1.309,0,0,0-.421-.5,9.075,9.075,0,0,0-1.357-.74c.075.085.151.17.224.256.146.174.763.942.763.942a2.533,2.533,0,0,0,.268.309,8.962,8.962,0,0,0,1.509,1.1l-.012-.025.083-.123c.033-.049.068-.1.141-.223a.814.814,0,0,0,.135-.332c.014-.222.036-.445.07-.685a.476.476,0,0,0,.005-.2.878.878,0,0,1-.007-.332l.037-.267.041-.423a.714.714,0,0,1,.027-.3.648.648,0,0,0,.016-.282,1.063,1.063,0,0,1,.021-.394.746.746,0,0,0-.015-.29,8,8,0,0,0-.373-1.353l-.1-.257a4.345,4.345,0,0,0-.286-.651.453.453,0,0,1-.213.053.588.588,0,0,1-.228-.049l-.142-.1.041-.368.072-.06a.649.649,0,0,1,.156-.092c-.011-.016-.024-.037-.042-.06l-.124-.153a2.031,2.031,0,0,1-.235-.319,2.693,2.693,0,0,0-.626-.741,1.931,1.931,0,0,0-1.1-.5c-.074-.005-.145-.008-.218-.008a5.637,5.637,0,0,0-.588.04c.079.027,1.31.445,1.608.551a2.034,2.034,0,0,1,.423.209.433.433,0,0,1,.152.577A.492.492,0,0,1,920.327,596.747Z" transform="translate(-900.275 -588.234)" fill="#fff"/>
    <path id="Path_222" data-name="Path 222" d="M915.609,604.4l-.093-.07a.477.477,0,0,1-.181-.31c-.023.141-.038.282-.053.42a4.924,4.924,0,0,0,.068,1.331,7.626,7.626,0,0,0,.5,1.774,4.965,4.965,0,0,1,.232.672c.116.451.23.9.319,1.361.114.585.209,1.176.3,1.766.044.294.081.589.116.885l.062.494.192,1.257c.029.2.059.4.1.595l.029.148a1.181,1.181,0,0,0,.157.475,5.907,5.907,0,0,1,.343.543,4.856,4.856,0,0,1,.4,1.082c.044.151.088.3.137.45.1.288.2.576.3.863l.083.205a.828.828,0,0,0,.346-.153,3.6,3.6,0,0,1,1.149-.427,4.761,4.761,0,0,1,.637-.092l.28-.031s.4-.056.513-.066a2,2,0,0,0,.769-.191,3.6,3.6,0,0,1,.472-.186l.38-.127c.237-.078.476-.157.71-.249l.141-.051a1.5,1.5,0,0,0,.245-.1l-.01-.016c-.06-.111-.118-.22-.187-.323s-.155-.211-.233-.315c-.108-.138-.215-.276-.309-.424a9.445,9.445,0,0,1-.766-1.528c-.075-.185-.144-.371-.212-.558-.094-.264-.19-.526-.305-.781s-.2-.487-.287-.733a7.329,7.329,0,0,0-.365-.889,5.572,5.572,0,0,1-.243-.6c-.094-.257-1.142-3.256-1.142-3.256a1.451,1.451,0,0,1,.175-1.279c.12-.2.254-.384.457-.667.182-.253.366-.506.557-.755a.711.711,0,0,1,.583-.294,1.052,1.052,0,0,1,.274.04l.168.056a1.994,1.994,0,0,0-.263-1.491,1.266,1.266,0,0,0-.574-.543c-.289-.137-.577-.273-.877-.384l-.25-.09a12.941,12.941,0,0,1-1.66-.695,2.734,2.734,0,0,0-.644-.23,1.037,1.037,0,0,0-.227-.029.772.772,0,0,0-.748.579,2.234,2.234,0,0,1-.1.252l-.164.383a5.17,5.17,0,0,0-.234.624,7.272,7.272,0,0,1-.309.875l-.056.144a.929.929,0,0,1-.587.617Zm3.24.871h.064c.057.1.036.2,0,.357-.044-.071-.078-.1-.081-.137A1.647,1.647,0,0,1,918.849,605.276Zm-.956-2.18a.224.224,0,0,1,.249.183.9.9,0,0,1,0,.185c-.267.034-.345-.008-.386-.192A.14.14,0,0,1,917.893,603.1Zm-.243,2.373a.411.411,0,0,1,.033.119c0,.019-.031.034-.049.052a.3.3,0,0,1-.042-.086C917.588,605.537,917.615,605.515,917.65,605.469Zm-.381-2.775a.176.176,0,0,1,.131.238.142.142,0,0,1-.177.1.137.137,0,0,1-.085-.181A.929.929,0,0,1,917.268,602.694Z" transform="translate(-900.653 -586.095)" fill="#fff"/>
  </g>
</svg>
